<?xml version="1.0" encoding="iso-8859-1"?>
<!-- Uploaded to: SVG Repo, www.svgrepo.com, Generator: SVG Repo Mixer Tools -->
<svg height="800px" width="800px" version="1.1" id="Layer_1" xmlns="http://www.w3.org/2000/svg" xmlns:xlink="http://www.w3.org/1999/xlink" 
	 viewBox="0 0 512 512" xml:space="preserve">
<g transform="translate(1 1)">
	<g>
		<path style="fill:#FFE100;" d="M289.133,348.867c-3.413,0-5.973-1.707-7.68-4.267L221.72,233.667
			c-2.56-4.267-0.853-9.387,3.413-11.947s9.387-0.853,11.947,3.413l59.733,110.933c2.56,4.267,0.853,9.387-3.413,11.947
			C291.693,348.867,290.84,348.867,289.133,348.867z"/>
		<path style="fill:#FFE100;" d="M212.333,255c-2.56,0-4.267-0.853-5.973-2.56c-3.413-3.413-3.413-8.533,0-11.947l34.133-34.133
			c3.413-3.413,8.533-3.413,11.947,0s3.413,8.533,0,11.947l-34.133,34.133C216.6,254.147,214.893,255,212.333,255z"/>
		<path style="fill:#FFE100;" d="M127,442.733C127,409.453,105.667,383,80.067,383s-46.933,26.453-46.933,59.733
			s21.333,59.733,46.933,59.733S127,476.013,127,442.733"/>
	</g>
	<path style="fill:#FFFFFF;" d="M33.133,442.733c0-30.72,17.92-55.467,40.96-58.88C72.387,383,69.827,383,67.267,383
		c-33.28,0-59.733,26.453-59.733,59.733s26.453,59.733,59.733,59.733c2.56,0,5.12,0,6.827-0.853
		C51.053,498.2,33.133,473.453,33.133,442.733"/>
	<g>
		<path style="fill:#FFE100;" d="M272.067,468.333c0-18.773-15.36-34.133-34.133-34.133S203.8,449.56,203.8,468.333
			c0,18.773,15.36,34.133,34.133,34.133S272.067,487.107,272.067,468.333"/>
		<path style="fill:#FFE100;" d="M58.733,246.467c0-14.507-11.093-25.6-25.6-25.6s-25.6,11.093-25.6,25.6
			c0,14.507,11.093,25.6,25.6,25.6S58.733,260.973,58.733,246.467"/>
	</g>
	<path style="fill:#FFFFFF;" d="M92.867,340.333H7.533v-33.28c0-19.627,15.36-34.987,34.987-34.987h50.347V340.333z"/>
	<g>
		<path style="fill:#FFE100;" d="M118.467,340.333H33.133v-33.28c0-19.627,15.36-34.987,34.987-34.987h50.347V340.333z"/>
		<path style="fill:#FFE100;" d="M97.987,391.533c17.067,10.24,29.013,29.013,29.013,51.2c0,9.387-1.707,17.92-5.973,25.6H203.8
			c0-18.773,15.36-34.133,34.133-34.133s34.133,15.36,34.133,34.133h-9.387c14.507,0,26.453-11.947,26.453-26.453v-50.347H97.987z"
			/>
	</g>
	<path style="fill:#FFA800;" d="M289.133,391.533v50.347c0,11.093-6.827,20.48-17.067,24.747c0,0.853,0,0.853,0,1.707h16.213
		c14.507,0,26.453-11.947,26.453-26.453v-50.347H289.133z"/>
	<path style="fill:#FFE100;" d="M76.653,385.56h0.853c1.707-0.853,4.267-0.853,5.973-1.707c0.853,0,0.853,0,1.707,0
		c2.56-0.853,5.12-0.853,7.68-0.853c2.56,0,5.12,0,7.68,0.853c0.853,0,0.853,0,1.707,0c1.707,0,4.267,0.853,5.973,1.707h0.853
		c5.12,1.707,9.387,3.413,14.507,5.973H306.2c0-17.92,0-34.987-0.853-51.2H33.133v102.4
		C33.133,415.427,51.053,392.387,76.653,385.56"/>
	<path style="fill:#FFFFFF;" d="M33.133,340.333h-25.6v102.4c0-20.48,10.24-38.4,25.6-48.64V340.333z"/>
	<path style="fill:#FFE100;" d="M485.4,468.333h-93.867v-51.2V383V24.6c0-9.387-7.68-17.067-17.067-17.067S357.4,15.213,357.4,24.6
		v477.867h34.133H485.4c9.387,0,17.067-7.68,17.067-17.067S494.787,468.333,485.4,468.333"/>
	<g>
		<path style="fill:#63D3FD;" d="M425.667,434.2h76.8V383h-76.8V434.2z"/>
		<path style="fill:#63D3FD;" d="M425.667,383h76.8v-51.2h-76.8V383z"/>
		<path style="fill:#63D3FD;" d="M425.667,331.8h76.8v-51.2h-76.8V331.8z"/>
		<path style="fill:#63D3FD;" d="M425.667,280.6h76.8v-51.2h-76.8V280.6z"/>
		<path style="fill:#63D3FD;" d="M425.667,229.4h76.8v-51.2h-76.8V229.4z"/>
		<path style="fill:#63D3FD;" d="M425.667,178.2h76.8V127h-76.8V178.2z"/>
	</g>
	<path style="fill:#FFE100;" d="M220.867,7.533h-153.6v34.133h153.6c12.8,0,24.747,24.747,41.813,81.067
		c17.067,57.173,17.92,133.12,17.92,268.8h17.067C297.667,172.227,289.987,7.533,220.867,7.533"/>
	<path style="fill:#FFA800;" d="M237.933,7.533h-17.067c69.12,0,76.8,164.693,76.8,384h17.067
		C314.733,172.227,307.053,7.533,237.933,7.533"/>
	<path style="fill:#FFE100;" d="M144.067,267.8v-32.427c0-12.8-10.24-23.893-23.893-23.893H92.867v128h51.2h51.2v-27.307
		c0-12.8-10.24-23.893-23.893-23.893h-6.827C153.453,289.133,144.067,279.747,144.067,267.8"/>
	<path style="fill:#FECC00;" d="M94.573,272.067v-59.733h6.827L127,41.667h-23.893L73.24,235.373
		c1.707,3.413,2.56,6.827,2.56,11.093c0,6.827-2.56,13.653-7.68,17.92l-0.853,7.68H94.573z"/>
	<path style="fill:#FFFFFF;" d="M75.8,246.467c0-4.267-0.853-7.68-2.56-11.093l29.867-193.707H86.04L56.173,235.373
		c1.707,3.413,2.56,6.827,2.56,11.093c0,6.827-2.56,13.653-7.68,17.92l-0.853,7.68h17.067l0.853-7.68
		C73.24,260.12,75.8,253.293,75.8,246.467"/>
	<path d="M67.267,511C29.72,511-1,480.28-1,442.733s30.72-68.267,68.267-68.267s68.267,30.72,68.267,68.267S104.813,511,67.267,511z
		 M67.267,391.533c-28.16,0-51.2,23.04-51.2,51.2c0,28.16,23.04,51.2,51.2,51.2s51.2-23.04,51.2-51.2
		C118.467,414.573,95.427,391.533,67.267,391.533z"/>
	<path d="M237.933,511c-23.893,0-42.667-18.773-42.667-42.667c0-23.893,18.773-42.667,42.667-42.667S280.6,444.44,280.6,468.333
		C280.6,492.227,261.827,511,237.933,511z M237.933,442.733c-14.507,0-25.6,11.093-25.6,25.6c0,14.507,11.093,25.6,25.6,25.6
		c14.507,0,25.6-11.093,25.6-25.6C263.533,453.827,252.44,442.733,237.933,442.733z"/>
	<path d="M33.133,280.6C14.36,280.6-1,265.24-1,246.467s15.36-34.133,34.133-34.133s34.133,15.36,34.133,34.133
		S51.907,280.6,33.133,280.6z M33.133,229.4c-9.387,0-17.067,7.68-17.067,17.067s7.68,17.067,17.067,17.067
		s17.067-7.68,17.067-17.067S42.52,229.4,33.133,229.4z"/>
	<path d="M314.733,400.067H280.6c-5.12,0-8.533-3.413-8.533-8.533c0-128-0.853-209.067-17.92-266.24
		C233.667,57.88,224.28,50.2,220.867,50.2h-153.6c-5.12,0-8.533-3.413-8.533-8.533V7.533c0-5.12,3.413-8.533,8.533-8.533h170.667
		c79.36,0,85.333,169.813,85.333,392.533C323.267,396.653,319.853,400.067,314.733,400.067z M289.133,383H306.2
		c0-186.88-5.973-366.933-68.267-366.933H75.8v17.067h145.067c17.92,0,29.867,22.187,49.493,87.04
		C288.28,178.2,289.133,255,289.133,383z"/>
	<path d="M195.267,348.867h-102.4c-5.12,0-8.533-3.413-8.533-8.533v-128c0-5.12,3.413-8.533,8.533-8.533h27.307
		c17.92,0,32.427,14.507,32.427,32.427v32.427c0,6.827,5.973,12.8,12.8,12.8h6.827c17.92,0,32.427,14.507,32.427,32.427v26.453
		C203.8,345.453,200.387,348.867,195.267,348.867z M101.4,331.8h85.333v-18.773c0-8.533-6.827-15.36-15.36-15.36h-6.827
		c-16.213,0-29.867-13.653-29.867-29.867v-32.427c0-8.533-6.827-15.36-15.36-15.36H101.4V331.8z"/>
	<path d="M92.867,348.867H7.533c-5.12,0-8.533-3.413-8.533-8.533v-33.28c0-23.893,19.627-43.52,43.52-43.52h50.347
		c5.12,0,8.533,3.413,8.533,8.533v68.267C101.4,345.453,97.987,348.867,92.867,348.867z M16.067,331.8h68.267v-51.2H42.52
		c-14.507,0-26.453,11.947-26.453,26.453V331.8z"/>
	<path d="M92.867,280.6H50.2c-2.56,0-5.12-0.853-6.827-2.56c-1.707-1.707-1.707-5.12-1.707-7.68l0.853-7.68
		c0-1.707,0.853-3.413,2.56-4.267c3.413-3.413,5.12-7.68,5.12-11.947c0-2.56-0.853-5.12-1.707-7.68
		c-0.853-1.707-0.853-3.413-0.853-5.12L77.507,39.96c0.853-3.413,4.267-6.827,8.533-6.827h34.133c2.56,0,5.12,0.853,5.973,2.56
		c0.853,1.707,2.56,4.267,1.707,6.827l-20.48,170.667c-0.853,3.413-3.413,6.827-6.827,7.68v51.2
		C101.4,277.187,97.987,280.6,92.867,280.6z M63,263.533h21.333v-51.2c0-4.267,3.413-8.533,7.68-8.533l18.773-153.6H93.72
		L64.707,233.667c1.707,4.267,2.56,8.533,2.56,12.8C67.267,252.44,65.56,258.413,63,263.533z"/>
	<path d="M280.6,348.867c-3.413,0-5.973-1.707-7.68-4.267l-59.733-110.933c-2.56-4.267-0.853-9.387,3.413-11.947
		c4.267-2.56,9.387-0.853,11.947,3.413l59.733,110.933c2.56,4.267,0.853,9.387-3.413,11.947
		C283.16,348.867,282.307,348.867,280.6,348.867z"/>
	<path d="M203.8,255c-2.56,0-4.267-0.853-5.973-2.56c-3.413-3.413-3.413-8.533,0-11.947l34.133-34.133
		c3.413-3.413,8.533-3.413,11.947,0c3.413,3.413,3.413,8.533,0,11.947l-34.133,34.133C208.067,254.147,206.36,255,203.8,255z"/>
	<path d="M357.4,357.4h-42.667c-5.12,0-8.533-3.413-8.533-8.533v-34.133c0-5.12,3.413-8.533,8.533-8.533H357.4
		c5.12,0,8.533,3.413,8.533,8.533v34.133C365.933,353.987,362.52,357.4,357.4,357.4z M323.267,340.333h25.6v-17.067h-25.6V340.333z"
		/>
	<path d="M357.4,425.667h-42.667c-5.12,0-8.533-3.413-8.533-8.533V383c0-5.12,3.413-8.533,8.533-8.533H357.4
		c5.12,0,8.533,3.413,8.533,8.533v34.133C365.933,422.253,362.52,425.667,357.4,425.667z M323.267,408.6h25.6v-17.067h-25.6V408.6z"
		/>
	<path d="M288.28,476.867h-16.213c-5.12,0-8.533-3.413-8.533-8.533c0-14.507-11.093-25.6-25.6-25.6c-14.507,0-25.6,11.093-25.6,25.6
		c0,5.12-3.413,8.533-8.533,8.533h-82.773c-2.56,0-5.973-1.707-6.827-4.267c-1.707-2.56-1.707-5.973-0.853-8.533
		c3.413-6.827,5.12-14.507,5.12-22.187c0-17.92-9.387-34.133-24.747-43.52c-3.413-1.707-5.12-5.973-3.413-9.387
		C91.16,385.56,94.573,383,98.84,383h215.893c5.12,0,8.533,3.413,8.533,8.533v50.347
		C323.267,461.507,307.907,476.867,288.28,476.867z M279.747,459.8h8.533c9.387,0,17.92-7.68,17.92-17.92v-41.813H120.173
		c9.387,11.947,15.36,26.453,15.36,42.667c0,5.973-0.853,11.093-2.56,17.067h63.147c4.267-19.627,21.333-34.133,41.813-34.133
		S275.48,440.173,279.747,459.8z"/>
	<path d="M7.533,451.267c-5.12,0-8.533-3.413-8.533-8.533v-102.4c0-5.12,3.413-8.533,8.533-8.533h272.213
		c4.267,0,8.533,3.413,8.533,8.533c0,16.213,0.853,33.28,0.853,51.2c0,5.12-3.413,8.533-8.533,8.533H97.987
		c-1.707,0-3.413,0-4.267-0.853c-3.413-2.56-7.68-4.267-11.947-5.12c-2.56-0.853-4.267-0.853-5.973-1.707h-1.707
		c-4.267-0.853-8.533-0.853-12.8,0h-1.707c-1.707,0-3.413,0.853-5.12,0.853l-3.413-7.68l2.56,8.533
		c-22.187,5.973-37.547,25.6-37.547,48.64C16.067,447.853,12.653,451.267,7.533,451.267z M16.067,348.867v48.64
		c8.533-9.387,19.627-17.067,32.427-20.48l0,0h0.853c2.56-0.853,5.12-0.853,7.68-1.707h1.707c5.973-0.853,11.947-0.853,17.067,0
		h1.707c2.56,0,5.12,0.853,7.68,1.707h0.853c5.12,1.707,9.387,3.413,14.507,5.973h171.52c0-11.947,0-23.04,0-34.133H16.067z"/>
	<path d="M50.2,442.733c0,9.387,7.68,17.067,17.067,17.067s17.067-7.68,17.067-17.067s-7.68-17.067-17.067-17.067
		S50.2,433.347,50.2,442.733"/>
	<path d="M485.4,511h-128c-5.12,0-8.533-3.413-8.533-8.533V24.6c0-14.507,11.093-25.6,25.6-25.6c14.507,0,25.6,11.093,25.6,25.6
		v435.2H485.4c14.507,0,25.6,11.093,25.6,25.6S499.907,511,485.4,511z M365.933,493.933H485.4c5.12,0,8.533-3.413,8.533-8.533
		s-3.413-8.533-8.533-8.533h-93.867c-5.12,0-8.533-3.413-8.533-8.533V24.6c0-5.12-3.413-8.533-8.533-8.533
		c-5.12,0-8.533,3.413-8.533,8.533V493.933z"/>
	<path d="M502.467,442.733h-76.8c-5.12,0-8.533-3.413-8.533-8.533V383c0-5.12,3.413-8.533,8.533-8.533h76.8
		c5.12,0,8.533,3.413,8.533,8.533v51.2C511,439.32,507.587,442.733,502.467,442.733z M434.2,425.667h59.733v-34.133H434.2V425.667z"
		/>
	<path d="M502.467,391.533h-76.8c-5.12,0-8.533-3.413-8.533-8.533v-51.2c0-5.12,3.413-8.533,8.533-8.533h76.8
		c5.12,0,8.533,3.413,8.533,8.533V383C511,388.12,507.587,391.533,502.467,391.533z M434.2,374.467h59.733v-34.133H434.2V374.467z"
		/>
	<path d="M502.467,340.333h-76.8c-5.12,0-8.533-3.413-8.533-8.533v-51.2c0-5.12,3.413-8.533,8.533-8.533h76.8
		c5.12,0,8.533,3.413,8.533,8.533v51.2C511,336.92,507.587,340.333,502.467,340.333z M434.2,323.267h59.733v-34.133H434.2V323.267z"
		/>
	<path d="M502.467,289.133h-76.8c-5.12,0-8.533-3.413-8.533-8.533v-51.2c0-5.12,3.413-8.533,8.533-8.533h76.8
		c5.12,0,8.533,3.413,8.533,8.533v51.2C511,285.72,507.587,289.133,502.467,289.133z M434.2,272.067h59.733v-34.133H434.2V272.067z"
		/>
	<path d="M502.467,237.933h-76.8c-5.12,0-8.533-3.413-8.533-8.533v-51.2c0-5.12,3.413-8.533,8.533-8.533h76.8
		c5.12,0,8.533,3.413,8.533,8.533v51.2C511,234.52,507.587,237.933,502.467,237.933z M434.2,220.867h59.733v-34.133H434.2V220.867z"
		/>
	<path d="M502.467,186.733h-76.8c-5.12,0-8.533-3.413-8.533-8.533V127c0-5.12,3.413-8.533,8.533-8.533h76.8
		c5.12,0,8.533,3.413,8.533,8.533v51.2C511,183.32,507.587,186.733,502.467,186.733z M434.2,169.667h59.733v-34.133H434.2V169.667z"
		/>
</g>
</svg>