<svg version="1.2" xmlns="http://www.w3.org/2000/svg" viewBox="0 0 1556 1587" width="1556" height="1587">
	<title>GOOG-71934e7d-svg</title>
	<style>
		.s0 { fill: #ffffff } 
	</style>
	<path id="Layer" class="s0" d="m1555.3 810.9c0-65.2-5.3-112.8-16.8-162.2h-745v294.4h437.3c-8.8 73.2-56.4 183.3-162.2 257.4l-1.5 9.8 235.6 182.5 16.3 1.6c149.8-138.4 236.3-342 236.3-583.5zm-761.8 775.6c214.2 0 394.1-70.5 525.5-192.1l-250.4-193.9c-67 46.7-157 79.3-275.1 79.3-209.8 0-387.9-138.4-451.4-329.6l-9.3 0.8-245 189.5-3.2 8.8c130.5 259.2 398.5 437.2 708.9 437.2zm-451.4-636.3c-16.8-49.4-26.5-102.3-26.5-156.9 0-54.7 9.7-107.6 25.6-156.9l-0.4-10.5-248.1-192.6-8.1 3.9c-53.7 107.5-84.6 228.3-84.6 356.1 0 127.8 30.9 248.5 84.6 356zm451.5-643.4c149 0 249.5 64.4 306.8 118.1l223.9-218.6c-137.5-127.8-316.5-206.2-530.7-206.2-310.4 0-578.4 178-708.9 437.2l256.6 199.2c64.3-191.3 242.4-329.7 452.3-329.7z"/>
</svg>