<?xml version="1.0" encoding="UTF-8" standalone="no"?>
<!-- Generator: Adobe Illustrator 12.0.0, SVG Export Plug-In . SVG Version: 6.00 Build 51448)  -->

<svg
   xmlns:dc="http://purl.org/dc/elements/1.1/"
   xmlns:cc="http://creativecommons.org/ns#"
   xmlns:rdf="http://www.w3.org/1999/02/22-rdf-syntax-ns#"
   xmlns:svg="http://www.w3.org/2000/svg"
   xmlns="http://www.w3.org/2000/svg"
   xmlns:sodipodi="http://sodipodi.sourceforge.net/DTD/sodipodi-0.dtd"
   xmlns:inkscape="http://www.inkscape.org/namespaces/inkscape"
   version="1.1"
   id="svg2008"
   sodipodi:version="0.32"
   inkscape:version="0.48.2 r9819"
   sodipodi:docname="T from T-Mobile logo.svg"
   width="65.380997"
   height="80.425003"
   viewBox="44 334 65.380997 80.425003"
   overflow="visible"
   enable-background="new 44 334 523 123"
   xml:space="preserve"
   style="overflow:visible"><metadata
   id="metadata27"><rdf:RDF><cc:Work
       rdf:about=""><dc:format>image/svg+xml</dc:format><dc:type
         rdf:resource="http://purl.org/dc/dcmitype/StillImage" /></cc:Work></rdf:RDF></metadata><defs
   id="defs25">
	
	
	
	
	
	
	
	
	
	
	
	
	
</defs>
<sodipodi:namedview
   units="mm"
   inkscape:cy="43.465681"
   borderopacity="1.0"
   pagecolor="#ffffff"
   inkscape:zoom="1.979899"
   inkscape:cx="267.44949"
   id="base"
   inkscape:window-x="-8"
   inkscape:window-y="-8"
   inkscape:current-layer="svg2008"
   inkscape:window-width="1600"
   inkscape:window-height="837"
   inkscape:pageshadow="2"
   inkscape:pageopacity="0.0"
   bordercolor="#666666"
   width="186.67mm"
   height="27.6mm"
   inkscape:document-units="px"
   showgrid="false"
   fit-margin-top="0"
   fit-margin-left="0"
   fit-margin-right="0"
   fit-margin-bottom="0"
   inkscape:window-maximized="1">
	</sodipodi:namedview>
<path
   style="fill:#999b9e"
   inkscape:connector-curvature="0"
   d="m 44,370.704 h 16.107 v 16.437 H 44 v -16.437 z"
   id="path18" /><path
   style="fill:#ed008c"
   inkscape:connector-curvature="0"
   d="m 82.683,337.895 h 1.911 c 12.343,0 18.096,6.603 20.5,24.212 l 3.822,-0.169 L 108.406,334 H 45.598 l -0.619,27.938 3.678,0.169 c 0.637,-6.603 1.401,-10.159 3.059,-13.715 2.931,-6.604 9.048,-10.497 16.566,-10.497 h 2.676 v 60.784 c 0,6.434 -0.382,8.466 -1.91,9.99 -1.275,1.185 -3.824,1.693 -6.756,1.693 h -2.931 v 4.063 H 94.28 v -4.063 h -2.949 c -2.913,0 -5.48,-0.509 -6.736,-1.693 -1.529,-1.524 -1.911,-3.557 -1.911,-9.99 v -60.784"
   id="path20" /><path
   style="fill:#999b9e"
   inkscape:connector-curvature="0"
   d="m 93.274,370.704 h 16.107 v 16.437 H 93.274 v -16.437 z"
   id="path22" />
</svg>