<svg version="1.2" baseProfile="tiny-ps" xmlns="http://www.w3.org/2000/svg" viewBox="0 0 1561 1293" width="1561" height="1293">
	<title>Vivint_logo_full_black_2020-svg</title>
	<style>
		tspan { white-space:pre }
		.shp0 { fill: #ffffff } 
	</style>
	<g id="Layer">
		<path id="Path_1_2_" fill-rule="evenodd" class="shp0" d="M1410.23 993.24C1492.9 993.24 1559.04 1059.41 1559.04 1142.13C1559.04 1224.84 1492.9 1291.02 1410.23 1291.02C1327.55 1291.02 1261.41 1224.84 1261.41 1142.13C1259.05 1061.77 1325.19 995.6 1410.23 993.24ZM592.91 0.64C607.08 0.64 618.89 5.37 628.34 14.82L1148.02 501.67C1169.28 520.57 1181.09 548.93 1181.09 577.29L1181.09 1239.02C1181.09 1267.38 1157.47 1291.02 1129.13 1291.02L54.33 1291.02C25.98 1291.02 2.36 1267.38 2.36 1239.02L2.36 577.29C2.36 548.93 14.17 520.57 35.43 501.67L557.48 14.82C566.93 5.37 578.74 0.64 592.91 0.64ZM252.75 641.1L252.75 1042.87L933.06 1042.87L933.06 641.1L592.91 322.05L252.75 641.1Z" />
	</g>
</svg>