<?xml version="1.0" encoding="utf-8"?>
<!-- Generator: Adobe Illustrator 19.2.1, SVG Export Plug-In . SVG Version: 6.00 Build 0)  -->
<svg version="1.1" id="layer" xmlns="http://www.w3.org/2000/svg" xmlns:xlink="http://www.w3.org/1999/xlink" x="0px" y="0px"
	 viewBox="0 0 652 652" style="enable-background:new 0 0 652 652;" xml:space="preserve">
<style type="text/css">
	.st0{fill:#FF8200;}
</style>
<g id="_Group_">
	<path id="_Compound_Path_" class="st0" d="M53.6,310.8h14.5l-17.4,39.5H37.9l-17.4-39.5h14.6l9.2,23.1L53.6,310.8z M84.7,299.2
		c0,4.1-3.3,7.4-7.4,7.5c-4.1-0.1-7.3-3.4-7.2-7.5c0-4,3.1-7.2,7.1-7.2c0,0,0.1,0,0.1,0C81.3,291.9,84.7,295.1,84.7,299.2
		C84.7,299.2,84.7,299.2,84.7,299.2z M70.4,310.8h13.9v39.5H70.4V310.8z M119.9,310.8h14.4L117,350.3h-13l-17.3-39.5h14.5l9.2,23.1
		L119.9,310.8z M151,299.2c0,4.1-3.3,7.4-7.4,7.5c-4.1-0.1-7.3-3.4-7.2-7.5c0-4,3.1-7.2,7.1-7.2c0,0,0.1,0,0.1,0
		C147.6,291.9,150.9,295.1,151,299.2C151,299.2,151,299.2,151,299.2z M136.7,310.8h14v39.5h-14V310.8z M199.7,325.5v24.8h-13.9
		v-21.4c0.3-3.8-2.5-7-6.3-7.3c-0.3,0-0.6,0-0.8,0c-3.4,0-7.6,1.8-7.6,8.5v20.2h-14v-39.5h14v5.2h0.3c3.4-4,8.4-6.2,13.6-6
		C194.5,309.9,199.7,317,199.7,325.5z M223.9,310.8h6.9v11.5h-6.9v28h-14v-28h-6.8v-11.5h6.8v-12.4h14L223.9,310.8z M245.4,343.1
		c0,4-3.2,7.3-7.3,7.3c0,0,0,0,0,0c-4,0-7.3-3.3-7.2-7.3c0-4,3.3-7.3,7.3-7.2C242.1,335.9,245.3,339.1,245.4,343.1z"/>
</g>
<path class="st0" d="M278.6,313.9c-1-4.9-5.3-8.3-10.3-8.2c-5.2,0-9.3,4.3-9.3,7.9c0,3.6,2.7,6.6,6.2,7l7.4,1.6
	c8.5,2,13.1,6.4,13.1,14.1c0,7.7-5.3,14.9-17.4,14.9c-12.1,0-17.7-8.2-18.9-14.9l7-2.1c1,5.8,5.9,10.1,11.8,10.3
	c6.5,0,9.9-3.7,9.9-7.6c0-3.3-2.6-6.4-7.2-7.4l-7.1-1.5c-6.7-1.3-12.4-7.1-12.4-13.8c0-7.8,7.4-14.9,16.6-14.9
	c11.1,0,15.9,7.3,17.1,12.5L278.6,313.9z"/>
<path class="st0" d="M354.5,332.9c0,6.8,4,11.9,9.7,11.9c6.4,0,9.6-5.7,9.6-11.9c0-6.8-4.1-11.5-9.5-11.5
	C358.9,321.5,354.5,326,354.5,332.9z M363.5,315.2c5.8,0,9.7,3.6,10.3,5.6v-4.6h7v27.6c0,2.4,0.3,5.9,0.3,6.3h-6.7
	c-0.4-1.6-0.5-3.3-0.5-4.9c-1.5,3.6-5.4,5.8-10.3,5.8c-10.2,0-16.2-7.5-16.2-18.2C347.3,322.2,354.2,315.2,363.5,315.2z"/>
<path class="st0" d="M386.8,316h7v5.7c1.7-4,5.7-6.5,10-6.2c0.8,0,1.5,0.1,2.3,0.2v7.5c-0.9-0.2-1.8-0.3-2.7-0.2
	c-6.6,0-9.4,4.1-9.4,10.3v16.9h-7.1L386.8,316z"/>
<path class="st0" d="M421.3,316h7.3v6.4h-7.3v17.1c-0.2,2.3,1.6,4.4,3.9,4.6c0.3,0,0.6,0,0.9,0c0.8,0,1.6-0.1,2.4-0.2v6
	c-1.5,0.6-3.1,0.8-4.7,0.7c-6,0-9.7-3.2-9.7-9.8v-18.3h-6.4V316h1.8c4.3,0,5.2-2.3,5.2-5.2v-5.3h6.4L421.3,316z"/>
<polygon class="st0" points="466.5,350.2 466.5,328.2 441.6,328.2 441.6,350.2 434.2,350.2 434.2,300.2 441.6,300.2 441.6,321.3 
	466.5,321.3 466.5,300.2 473.9,300.2 473.9,350.2 "/>
<path class="st0" d="M520.4,350.2V316h6.8v4.5c2.3-3.3,6.2-5.4,10.2-5.4c4.3,0.1,8.2,2.5,10.2,6.4c2.3-4,6.6-6.4,11.3-6.3
	c6.2,0,11.8,4,11.8,12.9v22.1h-7V329c0-4.3-2.1-7.5-7-7.5c-4.3,0.1-7.7,3.7-7.6,8.1c0,0,0,0.1,0,0.1v20.5h-7.1V329
	c0.1-4-3-7.3-7-7.5c-4.4,0.2-7.8,3.9-7.6,8.3v20.4H520.4z"/>
<path class="st0" d="M291.3,350.2V316h6.8v4.5c2.3-3.3,6.2-5.4,10.2-5.4c4.3,0.1,8.2,2.5,10.2,6.3c2.4-3.9,6.7-6.3,11.3-6.3
	c6.2,0,11.8,4,11.8,12.9v22.2h-7V329c0-4.3-2.1-7.5-7-7.5c-4.3,0.1-7.7,3.7-7.6,8.1c0,0,0,0.1,0,0.1v20.5h-7V329c0.1-4-3-7.3-7-7.5
	c-4.4,0.2-7.8,3.9-7.6,8.3v20.4H291.3z"/>
<path class="st0" d="M583.2,329.6h18c-0.1-4.7-4-8.5-8.7-8.4c-0.1,0-0.2,0-0.3,0C587.4,321.1,583.4,324.8,583.2,329.6z M608.2,340.5
	c-2,6.7-8.3,11.1-15.3,10.7c-8.8,0-17.2-6.4-17.2-18.2c0-10.1,6.7-18,16.4-18c11.5,0,16.4,7.2,16.4,17.8c0,0.8-0.1,1.5-0.2,2.3H583
	c0.3,5.4,4.6,9.6,9.9,9.8c4.2,0.1,8-2.5,9.2-6.5L608.2,340.5z"/>
<path class="st0" d="M497.5,344.8c6,0,10.2-5.3,10.2-11.7c0-7-4.6-11.6-10.2-11.6s-10.2,5.2-10.2,11.6
	C487.3,339,491.6,344.8,497.5,344.8z M497.5,315.1c10.7,0,17.5,7.5,17.5,18c0,11.2-7.1,18.1-17.5,18.1c-9.9,0-17.5-6.7-17.5-18.1
	c-0.4-9.5,6.9-17.6,16.4-18C496.8,315.1,497.1,315.1,497.5,315.1z"/>
<path class="st0" d="M615.7,315.1c2.6,0,4.7,2,4.7,4.6c0,2.6-2,4.7-4.6,4.7s-4.7-2-4.7-4.6c0,0,0,0,0-0.1
	C611.1,317.2,613.2,315.1,615.7,315.1C615.7,315.1,615.7,315.1,615.7,315.1z M615.7,323.8c2.2,0.1,4.1-1.7,4.2-3.9
	c0.1-2.2-1.7-4.1-3.9-4.2c-2.2-0.1-4.1,1.7-4.2,3.9c0,0,0,0.1,0,0.1C611.7,321.9,613.5,323.8,615.7,323.8
	C615.7,323.8,615.7,323.8,615.7,323.8z M614.9,322.3h-0.6v-5.1h1.6c0.8,0,1.6,0.6,1.6,1.4c0,0,0,0.1,0,0.1c0,0.7-0.5,1.3-1.2,1.5
	l1.2,2.1h-0.7l-1.2-2.1h-0.8L614.9,322.3z M615.9,319.7c0.5,0.1,1-0.3,1.1-0.8c0.1-0.5-0.3-1-0.8-1.1c-0.1,0-0.2,0-0.3,0h-0.9v1.9
	H615.9z"/>
</svg>
